<svg width="40" height="40" viewBox="0 0 40 40" fill="none" xmlns="http://www.w3.org/2000/svg">
<rect width="40" height="40" rx="20" fill="url(#paint0_linear_31_3072)"/>
<path d="M25.6807 20.8428C25.6624 21.3076 25.5941 21.7656 25.4756 22.2168C25.3571 22.668 25.1771 23.0758 24.9355 23.4404C24.6986 23.805 24.3955 24.0967 24.0264 24.3154C23.6572 24.5342 23.2106 24.6436 22.6865 24.6436C22.3903 24.6436 22.1237 24.5911 21.8867 24.4863C21.6497 24.3815 21.4492 24.2334 21.2852 24.042C21.1211 23.846 21.0003 23.6113 20.9229 23.3379C20.8454 23.0645 20.818 22.7568 20.8408 22.415L21.1895 18.4775H22.5566L22.2148 22.415C22.1875 22.652 22.1898 22.8457 22.2217 22.9961C22.2581 23.1465 22.3128 23.2627 22.3857 23.3447C22.4632 23.4268 22.5498 23.486 22.6455 23.5225C22.7458 23.5544 22.8438 23.5703 22.9395 23.5703C23.1582 23.5703 23.3587 23.502 23.541 23.3652C23.7233 23.2285 23.8805 23.0394 24.0127 22.7979C24.1449 22.5563 24.2497 22.2738 24.3271 21.9502C24.4046 21.6221 24.4479 21.2689 24.457 20.8906C24.4889 20.2845 24.4593 19.724 24.3682 19.209C24.2816 18.694 24.1312 18.2337 23.917 17.8281C23.7074 17.418 23.4339 17.0716 23.0967 16.7891C22.7594 16.502 22.3584 16.2832 21.8936 16.1328C21.4287 15.9779 20.8978 15.9004 20.3008 15.9004C19.7402 15.9004 19.223 15.987 18.749 16.1602C18.2796 16.3333 17.8581 16.5817 17.4844 16.9053C17.1152 17.2288 16.7962 17.6162 16.5273 18.0674C16.263 18.514 16.0534 19.013 15.8984 19.5645C15.748 20.1113 15.6592 20.6992 15.6318 21.3281C15.5999 21.9889 15.6341 22.5905 15.7344 23.1328C15.8392 23.6751 16.0055 24.1514 16.2334 24.5615C16.4658 24.9762 16.7552 25.3226 17.1016 25.6006C17.4479 25.8786 17.8512 26.0882 18.3115 26.2295C18.7718 26.3708 19.2845 26.4414 19.8496 26.4414C20.2461 26.4414 20.6494 26.3958 21.0596 26.3047C21.4743 26.2181 21.8229 26.1064 22.1055 25.9697L22.3652 26.9883C22.0462 27.1934 21.6475 27.346 21.1689 27.4463C20.695 27.5465 20.2461 27.5967 19.8223 27.5967C19.0977 27.5967 18.4368 27.5078 17.8398 27.3301C17.2474 27.1569 16.7233 26.8971 16.2676 26.5508C15.8118 26.209 15.4313 25.7852 15.126 25.2793C14.8252 24.7734 14.6019 24.1901 14.4561 23.5293C14.3148 22.8685 14.2601 22.1348 14.292 21.3281C14.3239 20.5807 14.4401 19.8766 14.6406 19.2158C14.8411 18.555 15.1146 17.9557 15.4609 17.418C15.8073 16.8802 16.222 16.4176 16.7051 16.0303C17.1927 15.6383 17.7396 15.3376 18.3457 15.1279C18.9518 14.9183 19.6126 14.8135 20.3281 14.8135C21.0391 14.8135 21.6839 14.9069 22.2627 15.0938C22.846 15.2806 23.3564 15.5495 23.7939 15.9004C24.2314 16.2467 24.596 16.6683 24.8877 17.165C25.1794 17.6572 25.3913 18.2132 25.5234 18.833C25.6556 19.4528 25.708 20.1227 25.6807 20.8428ZM18.7764 21.5605C18.7536 21.8613 18.7559 22.1279 18.7832 22.3604C18.8105 22.5928 18.863 22.7887 18.9404 22.9482C19.0179 23.1077 19.1182 23.2285 19.2412 23.3105C19.3688 23.388 19.5192 23.4268 19.6924 23.4268C19.7881 23.4268 19.8929 23.404 20.0068 23.3584C20.1208 23.3083 20.237 23.2262 20.3555 23.1123C20.474 22.9984 20.5856 22.8411 20.6904 22.6406C20.7998 22.4355 20.891 22.1781 20.9639 21.8682L21.5449 22.5586C21.4401 22.9004 21.3102 23.2012 21.1553 23.4609C21.0003 23.7161 20.8226 23.9303 20.6221 24.1035C20.4261 24.2767 20.2119 24.4066 19.9795 24.4932C19.7471 24.5798 19.4964 24.623 19.2275 24.623C18.8949 24.623 18.5986 24.5524 18.3389 24.4111C18.0791 24.2653 17.8626 24.0579 17.6895 23.7891C17.5163 23.5202 17.391 23.1989 17.3135 22.8252C17.2406 22.4469 17.2269 22.0254 17.2725 21.5605C17.3226 21.0957 17.4137 20.665 17.5459 20.2686C17.6781 19.8721 17.8421 19.5189 18.0381 19.209C18.234 18.8945 18.4574 18.6279 18.708 18.4092C18.9632 18.1859 19.2389 18.0173 19.5352 17.9033C19.8314 17.7894 20.1413 17.7324 20.4648 17.7324C20.9889 17.7324 21.4014 17.8076 21.7021 17.958C22.0029 18.1084 22.2878 18.2816 22.5566 18.4775L21.8594 19.4141C21.7272 19.2956 21.554 19.1816 21.3398 19.0723C21.1302 18.9583 20.8796 18.9014 20.5879 18.9014C20.319 18.9014 20.082 18.9583 19.877 19.0723C19.6764 19.1862 19.501 19.3571 19.3506 19.585C19.2048 19.8083 19.084 20.0863 18.9883 20.4189C18.8926 20.7471 18.8219 21.1276 18.7764 21.5605Z" fill="#4169E1"/>
<defs>
<linearGradient id="paint0_linear_31_3072" x1="0" y1="0" x2="40" y2="40" gradientUnits="userSpaceOnUse">
<stop stop-color="#E2E8FF"/>
<stop offset="1" stop-color="#F3F4FF"/>
</linearGradient>
</defs>
</svg>
