<svg width="16" height="16" viewBox="0 0 16 16" fill="none" xmlns="http://www.w3.org/2000/svg">
<g clip-path="url(#clip0_121_66564)">
<path d="M8.70955 13.0089C8.87023 13.0089 9.01086 12.9553 9.14481 12.8281L13.5979 8.38167C13.7318 8.25444 13.7988 8.10042 13.7988 7.93301C13.7988 7.77229 13.7318 7.61828 13.5979 7.48435L9.14481 3.04462C9.01086 2.91738 8.87023 2.85712 8.70955 2.85712C8.38143 2.85712 8.12698 3.10488 8.12698 3.43301C8.12698 3.59372 8.18052 3.75444 8.28766 3.86158L9.78766 5.38167L12.4194 7.78569L12.5533 7.41069L10.5578 7.33703H1.73186C1.38365 7.33703 1.14258 7.5848 1.14258 7.93301C1.14258 8.28123 1.38365 8.53569 1.73186 8.53569H10.5578L12.5533 8.46203L12.4194 8.09372L9.78766 10.4844L8.28766 12.0111C8.18052 12.1183 8.12698 12.279 8.12698 12.433C8.12698 12.7679 8.38143 13.0089 8.70955 13.0089ZM14.3948 13.0089C14.743 13.0089 14.9975 12.7745 14.9975 12.433V3.4531C14.9975 3.10488 14.743 2.85712 14.3948 2.85712C14.0466 2.85712 13.7988 3.10488 13.7988 3.4531V12.433C13.7988 12.7745 14.0466 13.0089 14.3948 13.0089Z" fill="#7A7A7A"/>
</g>
<defs>
<clipPath id="clip0_121_66564">
<rect width="13.8549" height="10.413" fill="white" transform="translate(1.14258 2.85712)"/>
</clipPath>
</defs>
</svg>
