<svg width="23" height="18" viewBox="0 0 23 18" fill="none" xmlns="http://www.w3.org/2000/svg">
<path d="M12.832 6.1875L9 2.8125L5.16797 6.1875L4.5 5.51953L9 1.58203L13.5 5.51953L12.832 6.1875ZM12.5859 7.59375L8.96484 10.6523L5.41406 7.55859V6.89062L9 3.72656L12.5859 6.89062V7.59375ZM9.91406 8.71875V7.20703H8.08594V8.71875H9.91406ZM8.33203 12.3398L4.5 9L0.667969 12.3398L0 11.707L4.5 7.76953L9 11.707L8.33203 12.3398ZM17.332 12.3398L13.5 9L9.66797 12.3398L9 11.707L13.5 7.76953L18 11.707L17.332 12.3398ZM4.5 9.91406L8.08594 13.043V16.207H0.914062V13.043L4.5 9.91406ZM13.5 9.91406L17.0859 13.043V16.207H9.91406V13.043L13.5 9.91406ZM5.41406 15.293V13.5H3.58594V15.293H5.41406ZM14.4141 15.293V13.5H12.5859V15.293H14.4141Z" fill="#333333"/>
</svg>
