<svg width="14" height="13" viewBox="0 0 14 13" fill="none" xmlns="http://www.w3.org/2000/svg">
<g clip-path="url(#clip0_827_365)">
<path d="M0 4.35864C0 7.15082 2.3399 9.89706 6.03658 12.2567C6.17422 12.3418 6.37736 12.4336 6.50846 12.4336C6.64611 12.4336 6.84276 12.3418 6.98695 12.2567C10.6836 9.89706 13.0235 7.15082 13.0235 4.35864C13.0235 2.0384 11.4308 0.399811 9.30063 0.399811C8.08805 0.399811 7.10491 0.976592 6.50846 1.86143C5.92516 0.983147 4.93543 0.399811 3.71632 0.399811C1.59271 0.399811 0 2.0384 0 4.35864ZM1.05525 4.35864C1.05525 2.61518 2.1826 1.45506 3.70321 1.45506C4.94198 1.45506 5.64327 2.22192 6.06935 2.87736C6.24632 3.13953 6.35773 3.21163 6.50846 3.21163C6.6658 3.21163 6.76412 3.13297 6.95417 2.87736C7.40643 2.23503 8.08805 1.45506 9.31371 1.45506C10.8409 1.45506 11.9682 2.61518 11.9682 4.35864C11.9682 6.79684 9.39241 9.42518 6.64611 11.2473C6.58056 11.2931 6.53469 11.3259 6.50846 11.3259C6.48883 11.3259 6.44291 11.2931 6.37736 11.2473C3.63111 9.42518 1.05525 6.79684 1.05525 4.35864Z" fill="#4169E1"/>
</g>
<defs>
<clipPath id="clip0_827_365">
<rect width="13.0235" height="12.4336" fill="white"/>
</clipPath>
</defs>
</svg>
