<svg width="16" height="16" viewBox="0 0 16 16" fill="none" xmlns="http://www.w3.org/2000/svg">
<g clip-path="url(#clip0_120_853)">
<path d="M1.28809 6.20628C1.28809 8.99846 3.62799 11.7447 7.32466 14.1043C7.46231 14.1895 7.66545 14.2813 7.79655 14.2813C7.93419 14.2813 8.13085 14.1895 8.27503 14.1043C11.9717 11.7447 14.3116 8.99846 14.3116 6.20628C14.3116 3.88604 12.7189 2.24745 10.5887 2.24745C9.37614 2.24745 8.39299 2.82423 7.79655 3.70907C7.21325 2.83079 6.22352 2.24745 5.0044 2.24745C2.8808 2.24745 1.28809 3.88604 1.28809 6.20628ZM2.34334 6.20628C2.34334 4.46282 3.47068 3.3027 4.99129 3.3027C6.23007 3.3027 6.93136 4.06956 7.35744 4.725C7.5344 4.98717 7.64582 5.05927 7.79655 5.05927C7.95388 5.05927 8.05221 4.98062 8.24226 4.725C8.69451 4.08267 9.37614 3.3027 10.6018 3.3027C12.129 3.3027 13.2563 4.46282 13.2563 6.20628C13.2563 8.64448 10.6805 11.2728 7.93419 13.0949C7.86864 13.1408 7.82278 13.1736 7.79655 13.1736C7.77692 13.1736 7.731 13.1408 7.66545 13.0949C4.9192 11.2728 2.34334 8.64448 2.34334 6.20628Z" fill="#7A7A7A"/>
</g>
<defs>
<clipPath id="clip0_120_853">
<rect width="13.0235" height="12.4336" fill="white" transform="translate(1.28809 1.84764)"/>
</clipPath>
</defs>
</svg>
