<svg width="16" height="16" viewBox="0 0 16 16" fill="none" xmlns="http://www.w3.org/2000/svg">
<path d="M3.52539 13.2611C3.52539 13.9108 3.89999 14.3263 4.49699 14.3263H11.8777C12.4688 14.3263 12.8434 13.9108 12.8434 13.2611V2.91289C12.8434 2.26321 12.4688 1.84764 11.8777 1.84764H4.49699C3.89999 1.84764 3.52539 2.26321 3.52539 2.91289V13.2611ZM4.46773 13.0445V3.12945C4.46773 2.89534 4.57309 2.78998 4.80721 2.78998H11.5675C11.7957 2.78998 11.9011 2.89534 11.9011 3.12945V13.0445C11.9011 13.2728 11.7957 13.384 11.5675 13.384H4.80721C4.57309 13.384 4.46773 13.2728 4.46773 13.0445ZM6.14755 13.8288H6.9143V11.8739C6.9143 11.751 6.97868 11.6866 7.1016 11.6866H9.26723C9.39599 11.6866 9.45453 11.751 9.45453 11.8739V13.8288H10.2212V11.6573C10.2212 11.154 9.99884 10.9199 9.51891 10.9199H6.84992C6.36997 10.9199 6.14755 11.154 6.14755 11.6573V13.8288ZM6.2412 5.34776H7.38255C7.52302 5.34776 7.62252 5.25411 7.62252 5.10778V4.00156C7.62252 3.86109 7.52302 3.76159 7.38255 3.76159H6.2412C6.10073 3.76159 6.01293 3.86109 6.01293 4.00156V5.10778C6.01293 5.25411 6.10073 5.34776 6.2412 5.34776ZM8.98628 5.34776H10.1218C10.2623 5.34776 10.3617 5.25411 10.3617 5.10778V4.00156C10.3617 3.86109 10.2623 3.76159 10.1218 3.76159H8.98628C8.83994 3.76159 8.75214 3.86109 8.75214 4.00156V5.10778C8.75214 5.25411 8.83994 5.34776 8.98628 5.34776ZM6.2412 7.66559H7.38255C7.52302 7.66559 7.62252 7.57194 7.62252 7.4256V6.31936C7.62252 6.17889 7.52302 6.07939 7.38255 6.07939H6.2412C6.10073 6.07939 6.01293 6.17889 6.01293 6.31936V7.4256C6.01293 7.57194 6.10073 7.66559 6.2412 7.66559ZM8.98628 7.66559H10.1218C10.2623 7.66559 10.3617 7.57194 10.3617 7.4256V6.31936C10.3617 6.17889 10.2623 6.07939 10.1218 6.07939H8.98628C8.83994 6.07939 8.75214 6.17889 8.75214 6.31936V7.4256C8.75214 7.57194 8.83994 7.66559 8.98628 7.66559ZM6.2412 9.98338H7.38255C7.52302 9.98338 7.62252 9.88389 7.62252 9.74339V8.63719C7.62252 8.49084 7.52302 8.3972 7.38255 8.3972H6.2412C6.10073 8.3972 6.01293 8.49084 6.01293 8.63719V9.74339C6.01293 9.88389 6.10073 9.98338 6.2412 9.98338ZM8.98628 9.98338H10.1218C10.2623 9.98338 10.3617 9.88389 10.3617 9.74339V8.63719C10.3617 8.49084 10.2623 8.3972 10.1218 8.3972H8.98628C8.83994 8.3972 8.75214 8.49084 8.75214 8.63719V9.74339C8.75214 9.88389 8.83994 9.98338 8.98628 9.98338Z" fill="#4169E1"/>
</svg>
